{"glyphs":{"0":{"ha":890,"x_min":83,"x_max":807,"o":"m 444 -19 l 444 -19 q 181 78 279 -19 q 83 372 83 176 l 83 372 l 83 600 q 181 893 83 794 q 444 992 279 992 l 444 992 q 709 893 611 992 q 807 600 807 794 l 807 600 l 807 372 q 709 78 807 176 q 444 -19 611 -19 z m 444 82 l 444 82 q 632 157 569 82 q 694 367 694 232 l 694 367 l 694 607 q 631 816 694 742 q 444 890 567 890 l 444 890 q 259 815 322 890 q 196 607 196 740 l 196 607 l 196 367 q 258 156 196 231 q 444 82 321 82 z"},"1":{"ha":581,"x_min":25,"x_max":469,"o":"m 469 0 l 357 0 l 357 897 l 336 897 l 147 551 l 25 551 l 257 972 l 469 972 l 469 0 z"},"2":{"ha":838,"x_min":74,"x_max":769,"o":"m 761 0 l 74 0 l 74 101 q 110 268 74 206 q 213 369 147 331 q 371 435 279 407 l 371 435 l 447 458 q 557 506 510 478 q 631 578 604 535 q 657 686 657 622 l 657 686 l 657 692 q 593 837 657 783 q 429 890 529 890 l 429 890 q 257 834 324 890 q 190 664 190 778 l 190 664 l 190 644 l 79 644 l 79 663 q 125 842 79 768 q 250 953 171 915 q 429 992 329 992 l 429 992 q 606 954 529 992 q 726 850 683 917 q 769 694 769 783 l 769 694 l 769 682 q 732 526 769 588 q 628 425 694 464 q 474 358 563 386 l 474 358 l 399 335 q 281 288 328 313 q 211 226 235 264 q 188 125 188 189 l 188 125 l 188 101 l 761 101 l 761 0 z"},"3":{"ha":839,"x_min":63,"x_max":768,"o":"m 421 -19 l 421 -19 q 237 19 318 -19 q 109 132 156 58 q 63 310 63 206 l 63 310 l 63 336 l 175 336 l 175 311 q 243 143 175 204 q 421 82 311 82 l 421 82 q 594 140 532 82 q 656 285 656 197 l 656 285 l 656 296 q 625 399 656 360 q 542 458 594 439 q 428 476 490 476 l 428 476 l 269 476 l 269 617 l 640 854 l 640 871 l 86 871 l 86 972 l 760 972 l 760 815 l 397 582 l 397 565 l 467 565 q 617 535 549 565 q 727 447 686 506 q 768 299 768 388 l 768 299 l 768 283 q 725 124 768 192 q 604 18 682 56 q 421 -19 526 -19 z"},"4":{"ha":868,"x_min":44,"x_max":831,"o":"m 664 0 l 551 0 l 551 199 l 44 199 l 44 332 l 453 972 l 664 972 l 664 300 l 831 300 l 831 199 l 664 199 l 664 0 z m 157 317 l 157 300 l 551 300 l 551 904 l 532 904 l 157 317 z"},"5":{"ha":832,"x_min":71,"x_max":765,"o":"m 419 -19 l 419 -19 q 235 22 313 -19 q 114 135 157 63 q 71 304 71 208 l 71 304 l 71 321 l 183 321 l 183 308 q 247 140 183 199 q 417 82 311 82 l 417 82 q 590 144 528 82 q 653 315 653 207 l 653 315 l 653 328 q 592 494 653 432 q 436 556 532 556 l 436 556 q 344 538 381 556 q 288 495 308 521 q 253 446 267 469 l 253 446 l 100 446 l 100 972 l 739 972 l 739 871 l 213 871 l 213 535 l 232 535 q 274 589 247 563 q 347 633 301 615 q 461 651 393 651 l 461 651 q 615 613 546 651 q 724 501 683 574 q 765 329 765 429 l 765 329 l 765 314 q 724 140 765 215 q 604 23 682 65 q 419 -19 526 -19 z"},"6":{"ha":850,"x_min":83,"x_max":779,"o":"m 431 -19 l 431 -19 q 252 20 331 -19 q 128 133 174 60 q 83 308 83 207 l 83 308 l 83 647 q 126 833 83 757 q 248 951 169 910 q 435 992 326 992 l 435 992 q 617 953 542 992 q 733 849 693 915 q 772 697 772 783 l 772 697 l 658 697 q 603 837 658 783 q 435 890 547 890 l 435 890 q 258 828 321 890 q 196 658 196 767 l 196 658 l 196 524 l 215 524 q 299 601 240 565 q 461 636 357 636 l 461 636 q 621 597 549 636 q 736 488 693 558 q 779 319 779 417 l 779 319 l 779 303 q 734 132 779 204 q 610 20 689 60 q 431 -19 531 -19 z m 431 82 l 431 82 q 601 142 536 82 q 667 304 667 201 l 667 304 l 667 315 q 637 435 667 385 q 554 513 607 485 q 431 542 501 542 l 431 542 q 308 513 361 542 q 226 435 256 485 q 196 315 196 385 l 196 315 l 196 304 q 261 142 196 201 q 431 82 326 82 z"},"7":{"ha":783,"x_min":44,"x_max":740,"o":"m 324 0 l 211 0 l 211 35 q 219 117 211 83 q 251 196 228 150 l 251 196 l 622 856 l 622 871 l 44 871 l 44 972 l 740 972 l 740 839 l 353 144 q 330 92 336 115 q 324 32 324 68 l 324 32 l 324 0 z"},"8":{"ha":865,"x_min":64,"x_max":800,"o":"m 432 -19 l 432 -19 q 237 15 319 -19 q 109 110 154 49 q 64 256 64 172 l 64 256 l 64 271 q 94 390 64 343 q 169 463 125 438 q 250 496 213 489 l 250 496 l 250 514 q 173 550 213 525 q 108 618 133 575 q 82 724 82 661 l 82 724 l 82 739 q 127 874 82 818 q 251 961 172 931 q 432 992 331 992 l 432 992 q 613 961 535 992 q 737 874 692 931 q 782 739 782 818 l 782 739 l 782 724 q 757 618 782 661 q 693 550 732 575 q 615 514 654 525 l 615 514 l 615 496 q 697 463 654 489 q 770 390 740 438 q 800 271 800 343 l 800 271 l 800 256 q 756 110 800 172 q 628 15 711 49 q 432 -19 546 -19 z m 432 82 l 432 82 q 619 128 550 82 q 688 261 688 174 l 688 261 l 688 272 q 619 406 688 360 q 432 451 551 451 l 432 451 q 246 406 314 451 q 178 272 178 360 l 178 272 l 178 261 q 247 128 178 174 q 432 82 315 82 z m 432 553 l 432 553 q 606 595 543 553 q 669 715 669 638 l 669 715 l 669 726 q 606 848 669 806 q 432 890 542 890 l 432 890 q 258 848 322 890 q 194 726 194 806 l 194 726 l 194 715 q 258 595 194 638 q 432 553 322 553 z"},"9":{"ha":850,"x_min":71,"x_max":767,"o":"m 415 -19 l 415 -19 q 233 19 308 -19 q 118 124 157 57 q 79 275 79 190 l 79 275 l 192 275 q 249 135 192 189 q 415 82 306 82 l 415 82 q 592 144 531 82 q 654 314 654 206 l 654 314 l 654 449 l 636 449 q 552 372 610 407 q 390 336 494 336 l 390 336 q 230 375 303 336 q 114 485 157 414 q 71 653 71 556 l 71 653 l 71 669 q 117 841 71 769 q 241 952 163 913 q 419 992 319 992 l 419 992 q 599 952 521 992 q 722 840 678 913 q 767 664 767 767 l 767 664 l 767 325 q 724 140 767 217 q 603 22 682 63 q 415 -19 524 -19 z m 419 431 l 419 431 q 542 459 489 431 q 624 538 594 488 q 654 657 654 589 l 654 657 l 654 668 q 590 831 654 772 q 419 890 525 890 l 419 890 q 249 831 314 890 q 183 668 183 772 l 183 668 l 183 657 q 213 538 183 589 q 297 459 243 488 q 419 431 350 431 z"},"A":{"ha":875,"x_min":35,"x_max":840,"o":"m 156 0 l 35 0 l 335 972 l 540 972 l 840 0 l 719 0 l 644 246 l 231 246 l 156 0 z m 428 901 l 260 351 l 614 351 l 447 901 l 428 901 z"},"B":{"ha":918,"x_min":65,"x_max":844,"o":"m 551 0 l 65 0 l 65 104 l 201 104 l 201 868 l 65 868 l 65 972 l 553 972 q 703 942 638 972 q 806 856 769 911 q 843 728 843 801 l 843 728 l 843 717 q 817 605 843 649 q 754 537 790 561 q 683 501 718 513 l 683 501 l 683 482 q 756 449 718 474 q 819 381 793 425 q 844 268 844 336 l 844 268 l 844 254 q 806 117 844 175 q 702 30 768 60 q 551 0 636 0 l 551 0 z m 318 438 l 318 106 l 539 106 q 679 149 631 106 q 728 265 728 192 l 728 265 l 728 278 q 679 394 728 351 q 539 438 631 438 l 539 438 l 318 438 z m 318 867 l 318 543 l 543 543 q 676 585 626 543 q 726 697 726 628 l 726 697 l 726 711 q 677 824 726 782 q 543 867 628 867 l 543 867 l 318 867 z"},"C":{"ha":892,"x_min":83,"x_max":819,"o":"m 463 -19 l 463 -19 q 186 81 289 -19 q 83 375 83 182 l 83 375 l 83 597 q 186 891 83 790 q 463 992 289 992 l 463 992 q 727 896 635 992 q 819 633 819 800 l 819 633 l 819 626 l 704 626 l 704 638 q 645 817 704 747 q 463 888 586 888 l 463 888 q 269 812 339 888 q 200 600 200 736 l 200 600 l 200 372 q 269 160 200 236 q 463 85 339 85 l 463 85 q 645 155 586 85 q 704 335 704 225 l 704 335 l 704 357 l 819 357 l 819 339 q 727 76 819 172 q 463 -19 635 -19 z"},"D":{"ha":921,"x_min":65,"x_max":846,"o":"m 444 0 l 65 0 l 65 104 l 201 104 l 201 868 l 65 868 l 65 972 l 444 972 q 741 875 636 972 q 846 576 846 778 l 846 576 l 846 396 q 741 97 846 193 q 444 0 636 0 l 444 0 z m 318 865 l 318 106 l 444 106 q 658 175 586 106 q 731 390 731 244 l 731 390 l 731 581 q 658 797 731 729 q 444 865 586 865 l 444 865 l 318 865 z"},"E":{"ha":782,"x_min":111,"x_max":717,"o":"m 717 0 l 111 0 l 111 972 l 710 972 l 710 867 l 228 867 l 228 542 l 671 542 l 671 436 l 228 436 l 228 106 l 717 106 l 717 0 z"},"F":{"ha":750,"x_min":111,"x_max":699,"o":"m 228 0 l 111 0 l 111 972 l 699 972 l 699 867 l 228 867 l 228 540 l 661 540 l 661 435 l 228 435 l 228 0 z"},"G":{"ha":917,"x_min":83,"x_max":815,"o":"m 450 -19 l 450 -19 q 259 26 342 -19 q 130 158 176 71 q 83 375 83 246 l 83 375 l 83 597 q 186 891 83 790 q 463 992 289 992 l 463 992 q 725 897 635 992 q 815 644 815 803 l 815 644 l 815 638 l 700 638 l 700 647 q 675 771 700 717 q 597 856 650 825 q 463 888 544 888 l 463 888 q 269 812 339 888 q 200 600 200 736 l 200 600 l 200 372 q 269 160 200 236 q 464 85 339 85 l 464 85 q 644 154 586 85 q 701 339 701 224 l 701 339 l 701 363 l 407 363 l 407 463 l 815 463 l 815 0 l 710 0 l 710 106 l 690 106 q 647 46 675 75 q 572 -1 619 17 q 450 -19 525 -19 z"},"H":{"ha":911,"x_min":111,"x_max":800,"o":"m 228 0 l 111 0 l 111 972 l 228 972 l 228 540 l 683 540 l 683 972 l 800 972 l 800 0 l 683 0 l 683 435 l 228 435 l 228 0 z"},"I":{"ha":339,"x_min":111,"x_max":228,"o":"m 228 0 l 111 0 l 111 972 l 228 972 l 228 0 z"},"J":{"ha":825,"x_min":57,"x_max":764,"o":"m 365 -19 l 365 -19 q 140 61 222 -19 q 57 292 57 142 l 57 292 l 57 367 l 172 367 l 172 292 q 220 144 172 201 q 364 88 268 88 l 364 88 q 501 144 461 88 q 542 292 542 200 l 542 292 l 542 867 l 371 867 l 371 972 l 764 972 l 764 867 l 658 867 l 658 292 q 583 60 658 140 q 365 -19 508 -19 z"},"K":{"ha":847,"x_min":111,"x_max":831,"o":"m 228 0 l 111 0 l 111 972 l 228 972 l 228 549 l 247 549 l 658 972 l 814 972 l 340 492 l 831 0 l 671 0 l 247 432 l 228 432 l 228 0 z"},"L":{"ha":758,"x_min":111,"x_max":719,"o":"m 719 0 l 111 0 l 111 972 l 228 972 l 228 106 l 719 106 l 719 0 z"},"M":{"ha":1201,"x_min":111,"x_max":1090,"o":"m 224 0 l 111 0 l 111 972 l 333 972 l 592 74 l 610 74 l 868 972 l 1090 972 l 1090 0 l 978 0 l 978 896 l 958 896 l 701 0 l 500 0 l 243 896 l 224 896 l 224 0 z"},"N":{"ha":922,"x_min":111,"x_max":810,"o":"m 226 0 l 111 0 l 111 972 l 338 972 l 676 74 l 694 74 l 694 972 l 810 972 l 810 0 l 583 0 l 246 900 l 226 900 l 226 0 z"},"O":{"ha":929,"x_min":83,"x_max":846,"o":"m 464 -19 l 464 -19 q 187 81 290 -19 q 83 375 83 182 l 83 375 l 83 597 q 187 891 83 790 q 464 992 290 992 l 464 992 q 742 891 639 992 q 846 597 846 790 l 846 597 l 846 375 q 742 81 846 182 q 464 -19 639 -19 z m 464 85 l 464 85 q 660 160 590 85 q 729 371 729 236 l 729 371 l 729 601 q 660 812 729 736 q 464 888 590 888 l 464 888 q 269 812 339 888 q 200 601 200 736 l 200 601 l 200 371 q 269 160 200 236 q 464 85 339 85 z"},"P":{"ha":835,"x_min":111,"x_max":789,"o":"m 228 0 l 111 0 l 111 972 l 483 972 q 640 938 571 972 q 749 842 708 904 q 789 690 789 779 l 789 690 l 789 672 q 748 522 789 585 q 638 425 707 458 q 483 392 568 392 l 483 392 l 228 392 l 228 0 z m 228 867 l 228 497 l 471 497 q 618 544 564 497 q 672 675 672 590 l 672 675 l 672 689 q 619 820 672 774 q 471 867 565 867 l 471 867 l 228 867 z"},"Q":{"ha":929,"x_min":83,"x_max":846,"o":"m 651 -225 l 521 -225 q 438 -194 469 -225 q 407 -108 407 -162 l 407 -108 l 407 -17 q 188 82 272 -3 l 188 82 q 83 375 83 182 l 83 375 l 83 597 q 187 891 83 790 q 464 992 290 992 l 464 992 q 742 891 639 992 q 846 597 846 790 l 846 597 l 846 375 q 743 82 846 182 l 743 82 q 521 -17 657 -3 l 521 -17 l 521 -87 q 560 -129 521 -129 l 560 -129 l 651 -129 l 651 -225 z m 464 85 l 464 85 q 660 160 590 85 q 729 371 729 236 l 729 371 l 729 601 q 660 812 729 736 q 464 888 590 888 l 464 888 q 269 812 339 888 q 200 601 200 736 l 200 601 l 200 371 q 269 160 200 236 q 464 85 339 85 z"},"R":{"ha":876,"x_min":111,"x_max":810,"o":"m 228 0 l 111 0 l 111 972 l 504 972 q 663 941 594 972 q 771 852 732 910 q 810 714 810 794 l 810 714 l 810 699 q 764 547 810 603 q 656 472 718 492 l 656 472 l 656 453 q 738 420 706 451 q 771 326 771 389 l 771 326 l 771 0 l 656 0 l 656 313 q 633 376 656 354 q 564 399 610 399 l 564 399 l 228 399 l 228 0 z m 228 867 l 228 504 l 493 504 q 641 551 589 504 q 693 681 693 597 l 693 681 l 693 690 q 642 820 693 774 q 493 867 590 867 l 493 867 l 228 867 z"},"S":{"ha":851,"x_min":67,"x_max":783,"o":"m 435 -19 l 435 -19 q 246 18 329 -19 q 115 131 163 56 q 67 321 67 207 l 67 321 l 67 350 l 182 350 l 182 321 q 253 141 182 200 q 435 82 324 82 l 435 82 q 608 133 549 82 q 668 263 668 185 l 668 263 q 641 349 668 317 q 565 401 614 381 q 451 436 517 421 l 451 436 l 379 454 q 229 508 294 476 q 127 592 164 540 q 90 726 90 644 l 90 726 q 131 868 90 808 q 247 960 172 928 q 418 992 321 992 l 418 992 q 595 958 517 992 q 719 858 674 924 q 764 692 764 792 l 764 692 l 764 633 l 649 633 l 649 692 q 619 806 649 763 q 537 869 589 849 q 418 890 485 890 l 418 890 q 264 848 322 890 q 206 728 206 806 l 206 728 q 231 644 206 676 q 301 592 256 613 q 411 557 347 572 l 411 557 l 483 539 q 635 490 568 521 q 743 405 703 458 q 783 265 783 351 l 783 265 q 740 115 783 179 q 619 16 697 51 q 435 -19 540 -19 z"},"T":{"ha":817,"x_min":38,"x_max":779,"o":"m 467 0 l 350 0 l 350 867 l 38 867 l 38 972 l 779 972 l 779 867 l 467 867 l 467 0 z"},"U":{"ha":925,"x_min":104,"x_max":822,"o":"m 463 -19 l 463 -19 q 274 19 354 -19 q 149 135 193 58 q 104 325 104 213 l 104 325 l 104 972 l 219 972 l 219 324 q 283 144 219 204 q 463 85 347 85 l 463 85 q 642 144 578 85 q 706 324 706 204 l 706 324 l 706 972 l 822 972 l 822 325 q 778 135 822 213 q 652 19 733 58 q 463 -19 571 -19 z"},"V":{"ha":860,"x_min":35,"x_max":825,"o":"m 532 0 l 328 0 l 35 972 l 156 972 l 421 71 l 439 71 l 704 972 l 825 972 l 532 0 z"},"W":{"ha":1215,"x_min":51,"x_max":1164,"o":"m 419 0 l 210 0 l 51 972 l 168 972 l 306 75 l 325 75 l 504 972 l 713 972 l 890 75 l 910 75 l 1047 972 l 1164 972 l 1006 0 l 797 0 l 618 903 l 599 903 l 419 0 z"},"X":{"ha":886,"x_min":44,"x_max":842,"o":"m 181 0 l 44 0 l 358 490 l 49 972 l 186 972 l 433 571 l 451 571 l 700 972 l 836 972 l 528 490 l 842 0 l 706 0 l 451 410 l 433 410 l 181 0 z"},"Y":{"ha":847,"x_min":19,"x_max":828,"o":"m 482 0 l 365 0 l 365 371 l 19 972 l 153 972 l 414 506 l 433 506 l 694 972 l 828 972 l 482 371 l 482 0 z"},"Z":{"ha":801,"x_min":69,"x_max":738,"o":"m 738 0 l 69 0 l 69 154 l 611 851 l 611 868 l 86 868 l 86 972 l 726 972 l 726 818 l 185 121 l 185 104 l 738 104 l 738 0 z"},"a":{"ha":799,"x_min":69,"x_max":764,"o":"m 324 -19 l 324 -19 q 194 6 253 -19 q 103 78 136 31 q 69 193 69 125 l 69 193 q 103 308 69 263 q 194 376 136 353 q 325 399 253 399 l 325 399 l 554 399 l 554 449 q 512 563 554 521 q 386 604 469 604 l 386 604 q 258 565 304 604 q 196 458 213 525 l 196 458 l 93 492 q 146 595 110 549 q 242 670 182 642 q 388 699 303 699 l 388 699 q 590 631 518 699 q 663 442 663 564 l 663 442 l 663 135 q 701 93 663 93 l 701 93 l 764 93 l 764 0 l 668 0 q 594 26 622 0 q 567 94 567 51 l 567 94 l 567 101 l 550 101 q 509 47 535 75 q 439 -1 483 18 q 324 -19 394 -19 z m 336 75 l 336 75 q 494 133 433 75 q 554 294 554 190 l 554 294 l 554 310 l 329 310 q 222 281 264 310 q 179 196 179 253 l 179 196 q 223 107 179 139 q 336 75 267 75 z"},"b":{"ha":894,"x_min":115,"x_max":813,"o":"m 492 -19 l 492 -19 q 327 21 386 -19 q 242 113 268 61 l 242 113 l 222 113 l 222 0 l 115 0 l 115 972 l 225 972 l 225 572 l 244 572 q 292 633 261 604 q 372 680 322 661 q 492 699 421 699 l 492 699 q 653 656 581 699 q 769 535 726 614 q 813 349 813 457 l 813 349 l 813 331 q 769 143 813 222 q 652 22 725 64 q 492 -19 579 -19 z m 463 78 l 463 78 q 634 145 568 78 q 700 333 700 213 l 700 333 l 700 346 q 634 534 700 467 q 463 601 568 601 l 463 601 q 291 534 358 601 q 224 346 224 467 l 224 346 l 224 333 q 291 145 224 213 q 463 78 358 78 z"},"c":{"ha":831,"x_min":82,"x_max":758,"o":"m 428 -19 l 428 -19 q 251 23 329 -19 q 127 144 172 65 q 82 332 82 224 l 82 332 l 82 347 q 127 535 82 457 q 251 656 172 614 q 428 699 329 699 l 428 699 q 594 663 525 699 q 702 567 663 626 q 753 439 742 507 l 753 439 l 646 417 q 613 508 639 467 q 542 575 588 550 q 429 600 496 600 l 429 600 q 308 569 361 600 q 223 482 254 539 q 192 346 192 425 l 192 346 l 192 333 q 223 197 192 254 q 308 110 254 140 q 429 79 361 79 l 429 79 q 584 132 531 79 q 650 263 638 185 l 650 263 l 758 239 q 703 113 743 172 q 594 17 663 53 q 428 -19 525 -19 z"},"d":{"ha":894,"x_min":82,"x_max":779,"o":"m 403 -19 l 403 -19 q 242 22 315 -19 q 125 143 168 64 q 82 331 82 222 l 82 331 l 82 349 q 125 535 82 457 q 241 656 168 614 q 403 699 314 699 l 403 699 q 523 680 474 699 q 603 633 572 661 q 650 572 633 604 l 650 572 l 669 572 l 669 972 l 779 972 l 779 0 l 672 0 l 672 113 l 653 113 q 567 21 625 61 q 403 -19 508 -19 z m 432 78 l 432 78 q 603 145 538 78 q 669 333 669 213 l 669 333 l 669 346 q 603 534 669 467 q 432 601 538 601 l 432 601 q 260 534 328 601 q 193 346 193 467 l 193 346 l 193 333 q 260 145 193 213 q 432 78 328 78 z"},"e":{"ha":822,"x_min":82,"x_max":746,"o":"m 426 -19 l 426 -19 q 246 24 324 -19 q 125 147 168 68 q 82 331 82 226 l 82 331 l 82 347 q 125 532 82 453 q 244 655 168 611 q 419 699 321 699 l 419 699 q 589 658 515 699 q 704 540 663 617 q 746 361 746 464 l 746 361 l 746 311 l 192 311 q 263 140 196 201 q 429 78 329 78 l 429 78 q 564 118 517 78 q 636 214 611 158 l 636 214 l 731 168 q 673 82 710 125 q 577 10 636 39 q 426 -19 518 -19 z m 193 401 l 193 401 l 635 401 q 570 549 629 496 q 419 601 511 601 l 419 601 q 267 549 326 601 q 193 401 207 496 z"},"f":{"ha":614,"x_min":40,"x_max":572,"o":"m 358 0 l 249 0 l 249 583 l 40 583 l 40 679 l 249 679 l 249 853 q 280 940 249 908 q 369 972 311 972 l 369 972 l 540 972 l 540 878 l 400 878 q 358 836 358 878 l 358 836 l 358 679 l 572 679 l 572 583 l 358 583 l 358 0 z"},"g":{"ha":892,"x_min":82,"x_max":776,"o":"m 82 336 l 82 336 l 82 356 q 125 539 82 463 q 242 657 168 615 q 403 699 315 699 l 403 699 q 567 658 510 699 q 653 567 625 617 l 653 567 l 672 567 l 672 679 l 776 679 l 776 -158 q 746 -246 776 -214 q 657 -278 715 -278 l 657 -278 l 196 -278 l 196 -181 l 628 -181 q 669 -139 669 -181 l 669 -139 l 669 119 l 650 119 q 603 60 633 89 q 524 12 572 31 q 403 -7 475 -7 l 403 -7 q 242 35 315 -7 q 125 153 168 76 q 82 336 82 231 z m 432 90 l 432 90 q 603 157 538 90 q 669 340 669 224 l 669 340 l 669 351 q 603 535 669 469 q 432 601 538 601 l 432 601 q 260 535 328 601 q 193 351 193 469 l 193 351 l 193 340 q 260 157 193 224 q 432 90 328 90 z"},"h":{"ha":851,"x_min":115,"x_max":744,"o":"m 225 0 l 115 0 l 115 972 l 225 972 l 225 571 l 244 571 q 287 628 258 601 q 360 674 315 656 q 475 692 406 692 l 475 692 q 612 659 551 692 q 708 565 672 626 q 744 411 744 503 l 744 411 l 744 0 l 635 0 l 635 403 q 584 550 635 504 q 447 596 533 596 l 447 596 q 287 532 349 596 q 225 342 225 468 l 225 342 l 225 0 z"},"i":{"ha":340,"x_min":86,"x_max":254,"o":"m 225 0 l 115 0 l 115 679 l 225 679 l 225 0 z m 171 785 l 171 785 q 110 808 135 785 q 86 868 86 832 l 86 868 q 110 929 86 906 q 171 953 135 953 l 171 953 q 231 929 207 953 q 254 868 254 906 l 254 868 q 231 808 254 832 q 171 785 207 785 z"},"j":{"ha":343,"x_min":-18,"x_max":257,"o":"m 107 -278 l -18 -278 l -18 -181 l 76 -181 q 118 -139 118 -181 l 118 -139 l 118 679 l 228 679 l 228 -158 q 197 -246 228 -214 q 107 -278 165 -278 l 107 -278 z m 174 785 l 174 785 q 113 808 138 785 q 89 868 89 832 l 89 868 q 113 929 89 906 q 174 953 138 953 l 174 953 q 233 929 210 953 q 257 868 257 906 l 257 868 q 233 808 257 832 q 174 785 210 785 z"},"k":{"ha":747,"x_min":115,"x_max":719,"o":"m 225 0 l 115 0 l 115 972 l 225 972 l 225 400 l 244 400 l 556 679 l 708 679 l 332 349 l 719 0 l 568 0 l 244 296 l 225 296 l 225 0 z"},"l":{"ha":340,"x_min":115,"x_max":225,"o":"m 225 0 l 115 0 l 115 972 l 225 972 l 225 0 z"},"m":{"ha":1194,"x_min":115,"x_max":1086,"o":"m 225 0 l 115 0 l 115 679 l 222 679 l 222 594 l 242 594 q 306 661 261 631 q 431 692 350 692 l 431 692 q 559 657 510 692 q 631 572 608 622 l 631 572 l 650 572 q 722 657 674 622 q 856 692 769 692 l 856 692 q 975 664 924 692 q 1056 584 1026 636 q 1086 460 1086 532 l 1086 460 l 1086 0 l 976 0 l 976 450 q 937 558 976 518 q 826 597 897 597 l 826 597 q 703 549 751 597 q 656 408 656 500 l 656 408 l 656 0 l 546 0 l 546 450 q 506 558 546 518 q 396 597 467 597 l 396 597 q 273 549 321 597 q 225 408 225 500 l 225 408 l 225 0 z"},"n":{"ha":851,"x_min":115,"x_max":744,"o":"m 225 0 l 115 0 l 115 679 l 222 679 l 222 564 l 242 564 q 317 652 264 613 q 475 692 371 692 l 475 692 q 612 660 551 692 q 708 565 672 628 q 744 411 744 503 l 744 411 l 744 0 l 635 0 l 635 403 q 584 550 635 504 q 447 596 533 596 l 447 596 q 287 532 349 596 q 225 342 225 468 l 225 342 l 225 0 z"},"o":{"ha":858,"x_min":82,"x_max":776,"o":"m 429 -19 l 429 -19 q 248 24 326 -19 q 126 145 169 67 q 82 331 82 224 l 82 331 l 82 349 q 126 533 82 454 q 248 656 169 613 q 429 699 326 699 l 429 699 q 610 656 532 699 q 733 533 689 613 q 776 349 776 454 l 776 349 l 776 331 q 733 145 776 224 q 610 24 689 67 q 429 -19 532 -19 z m 429 79 l 429 79 q 602 148 538 79 q 667 333 667 217 l 667 333 l 667 346 q 602 531 667 463 q 429 600 538 600 l 429 600 q 257 531 322 600 q 192 346 192 463 l 192 346 l 192 333 q 257 148 192 217 q 429 79 322 79 z"},"p":{"ha":894,"x_min":115,"x_max":813,"o":"m 225 -278 l 115 -278 l 115 679 l 222 679 l 222 567 l 242 567 q 327 658 268 618 q 492 699 386 699 l 492 699 q 652 656 579 699 q 769 536 725 614 q 813 349 813 458 l 813 349 l 813 331 q 769 143 813 222 q 653 22 726 64 q 492 -19 581 -19 l 492 -19 q 372 -1 421 -19 q 292 47 322 18 q 244 107 261 76 l 244 107 l 225 107 l 225 -278 z m 463 78 l 463 78 q 634 145 568 78 q 700 333 700 213 l 700 333 l 700 346 q 634 534 700 467 q 463 601 568 601 l 463 601 q 291 534 358 601 q 224 346 224 467 l 224 346 l 224 333 q 291 145 224 213 q 463 78 358 78 z"},"q":{"ha":894,"x_min":82,"x_max":779,"o":"m 779 -278 l 669 -278 l 669 107 l 650 107 q 603 47 633 76 q 523 -1 572 18 q 403 -19 474 -19 l 403 -19 q 241 22 314 -19 q 125 143 168 64 q 82 331 82 222 l 82 331 l 82 349 q 125 536 82 458 q 242 656 168 614 q 403 699 315 699 l 403 699 q 567 658 508 699 q 653 567 625 618 l 653 567 l 672 567 l 672 679 l 779 679 l 779 -278 z m 432 78 l 432 78 q 603 145 538 78 q 669 333 669 213 l 669 333 l 669 346 q 603 534 669 467 q 432 601 538 601 l 432 601 q 260 534 328 601 q 193 346 193 467 l 193 346 l 193 333 q 260 145 193 213 q 432 78 328 78 z"},"r":{"ha":524,"x_min":115,"x_max":476,"o":"m 225 0 l 115 0 l 115 679 l 222 679 l 222 596 l 242 596 q 297 661 260 640 q 396 682 335 682 l 396 682 l 476 682 l 476 582 l 389 582 q 270 541 315 582 q 225 414 225 500 l 225 414 l 225 0 z"},"s":{"ha":732,"x_min":71,"x_max":663,"o":"m 389 -19 l 389 -19 q 176 39 263 -19 q 71 224 89 97 l 71 224 l 175 247 q 217 142 186 181 q 292 88 247 104 q 389 72 338 72 l 389 72 q 510 103 465 72 q 554 185 554 133 l 554 185 q 512 259 554 238 q 396 294 469 281 l 396 294 l 339 304 q 219 339 274 315 q 133 403 165 363 q 101 504 101 443 l 101 504 q 172 647 101 596 q 360 699 243 699 l 360 699 q 547 647 475 699 q 639 500 618 594 l 639 500 l 536 474 q 476 577 524 547 q 360 607 429 607 l 360 607 q 250 581 290 607 q 210 506 210 556 l 210 506 q 248 434 210 457 q 350 400 286 411 l 350 400 l 407 390 q 537 356 479 378 q 628 294 594 335 q 663 189 663 254 l 663 189 q 588 35 663 89 q 389 -19 514 -19 z"},"t":{"ha":639,"x_min":40,"x_max":576,"o":"m 546 0 l 365 0 q 276 32 307 0 q 244 119 244 64 l 244 119 l 244 583 l 40 583 l 40 679 l 244 679 l 244 921 l 354 921 l 354 679 l 576 679 l 576 583 l 354 583 l 354 136 q 394 94 354 94 l 394 94 l 546 94 l 546 0 z"},"u":{"ha":850,"x_min":107,"x_max":736,"o":"m 375 -12 l 375 -12 q 240 19 301 -12 q 142 115 178 51 q 107 268 107 178 l 107 268 l 107 679 l 217 679 l 217 276 q 267 129 217 175 q 404 83 318 83 l 404 83 q 564 147 501 83 q 626 338 626 211 l 626 338 l 626 679 l 736 679 l 736 0 l 629 0 l 629 115 l 610 115 q 533 27 588 67 q 375 -12 479 -12 z"},"v":{"ha":749,"x_min":44,"x_max":706,"o":"m 463 0 l 288 0 l 44 679 l 161 679 l 365 82 l 385 82 l 589 679 l 706 679 l 463 0 z"},"w":{"ha":1113,"x_min":74,"x_max":1039,"o":"m 397 0 l 210 0 l 74 679 l 185 679 l 297 74 l 317 74 l 465 679 l 647 679 l 796 74 l 815 74 l 928 679 l 1039 679 l 903 0 l 715 0 l 565 606 l 547 606 l 397 0 z"},"x":{"ha":824,"x_min":60,"x_max":764,"o":"m 194 0 l 60 0 l 332 344 l 68 679 l 200 679 l 403 417 l 422 417 l 624 679 l 757 679 l 492 344 l 764 0 l 631 0 l 422 271 l 403 271 l 194 0 z"},"y":{"ha":850,"x_min":107,"x_max":736,"o":"m 614 -278 l 197 -278 l 197 -181 l 586 -181 q 626 -139 626 -181 l 626 -139 l 626 108 l 607 108 q 565 51 593 79 q 490 5 536 22 q 375 -12 444 -12 l 375 -12 q 240 19 301 -12 q 142 114 178 51 q 107 267 107 176 l 107 267 l 107 679 l 217 679 l 217 275 q 267 129 217 175 q 404 83 318 83 l 404 83 q 564 147 501 83 q 626 338 626 211 l 626 338 l 626 679 l 736 679 l 736 -158 q 705 -246 736 -214 q 614 -278 674 -278 l 614 -278 z"},"z":{"ha":724,"x_min":85,"x_max":643,"o":"m 643 0 l 85 0 l 85 142 l 517 568 l 517 583 l 99 583 l 99 679 l 632 679 l 632 538 l 199 111 l 199 94 l 643 94 l 643 0 z"}," ":{"ha":357,"x_min":0,"x_max":0,"o":""},".":{"ha":351,"x_min":81,"x_max":269,"o":"m 175 -19 l 175 -19 q 108 7 135 -19 q 81 75 81 33 l 81 75 q 108 143 81 117 q 175 169 135 169 l 175 169 q 243 143 217 169 q 269 75 269 117 l 269 75 q 243 7 269 33 q 175 -19 217 -19 z"},",":{"ha":349,"x_min":81,"x_max":268,"o":"m 149 -174 l 104 -174 l 104 -104 l 144 -104 q 194 -54 194 -104 l 194 -54 l 194 -10 l 175 -10 q 108 15 135 -10 q 81 78 81 40 l 81 78 q 108 143 81 118 q 175 168 135 168 l 175 168 q 242 142 215 168 q 268 75 268 115 l 268 75 l 268 -54 q 149 -174 268 -174 l 149 -174 z"},":":{"ha":351,"x_min":81,"x_max":269,"o":"m 175 -19 l 175 -19 q 108 7 135 -19 q 81 75 81 33 l 81 75 q 108 143 81 117 q 175 169 135 169 l 175 169 q 243 143 217 169 q 269 75 269 117 l 269 75 q 243 7 269 33 q 175 -19 217 -19 z m 175 510 l 175 510 q 108 536 135 510 q 81 604 81 563 l 81 604 q 108 672 81 646 q 175 699 135 699 l 175 699 q 243 672 217 699 q 269 604 269 646 l 269 604 q 243 536 269 563 q 175 510 217 510 z"},";":{"ha":351,"x_min":81,"x_max":269,"o":"m 175 510 l 175 510 q 108 536 135 510 q 81 604 81 563 l 81 604 q 108 672 81 646 q 175 699 135 699 l 175 699 q 243 672 217 699 q 269 604 269 646 l 269 604 q 243 536 269 563 q 175 510 217 510 z m 150 -174 l 106 -174 l 106 -104 l 146 -104 q 196 -54 196 -104 l 196 -54 l 196 -10 l 176 -10 q 109 15 136 -10 q 82 78 82 40 l 82 78 q 109 143 82 118 q 176 168 136 168 l 176 168 q 243 142 217 168 q 269 75 269 115 l 269 75 l 269 -54 q 150 -174 269 -174 l 150 -174 z"},"!":{"ha":351,"x_min":81,"x_max":269,"o":"m 232 260 l 119 260 l 119 972 l 232 972 l 232 260 z m 175 -19 l 175 -19 q 108 7 135 -19 q 81 75 81 33 l 81 75 q 108 143 81 117 q 175 169 135 169 l 175 169 q 243 143 217 169 q 269 75 269 117 l 269 75 q 243 7 269 33 q 175 -19 217 -19 z"},"?":{"ha":806,"x_min":60,"x_max":742,"o":"m 444 260 l 329 260 l 329 344 q 353 445 329 408 q 436 508 376 482 l 436 508 l 475 525 q 588 598 547 556 q 628 717 628 640 l 628 717 q 599 813 628 774 q 519 872 569 851 q 407 893 469 893 l 407 893 q 291 872 344 893 q 205 806 238 850 q 172 696 172 763 l 172 696 l 172 647 l 60 647 l 60 696 q 105 858 60 792 q 228 958 150 924 q 407 992 307 992 l 407 992 q 581 956 506 992 q 699 859 657 921 q 742 717 742 797 l 742 717 q 712 585 742 638 q 635 499 682 533 q 531 440 588 465 l 531 440 l 493 424 q 456 394 467 413 q 444 343 444 376 l 444 343 l 444 260 z m 389 -19 l 389 -19 q 321 7 347 -19 q 294 75 294 33 l 294 75 q 321 143 294 117 q 389 169 347 169 l 389 169 q 456 143 429 169 q 483 75 483 117 l 483 75 q 456 7 483 33 q 389 -19 429 -19 z"},"'":{"ha":349,"x_min":81,"x_max":268,"o":"m 149 650 l 104 650 l 104 719 l 144 719 q 194 769 194 719 l 194 769 l 194 814 l 175 814 q 108 839 135 814 q 81 901 81 864 l 81 901 q 108 967 81 942 q 175 992 135 992 l 175 992 q 242 965 215 992 q 268 899 268 939 l 268 899 l 268 769 q 149 650 268 650 l 149 650 z"},"\"":{"ha":590,"x_min":81,"x_max":508,"o":"m 149 650 l 104 650 l 104 719 l 144 719 q 194 769 194 719 l 194 769 l 194 814 l 175 814 q 108 839 135 814 q 81 901 81 864 l 81 901 q 108 967 81 942 q 175 992 135 992 l 175 992 q 242 965 215 992 q 268 899 268 939 l 268 899 l 268 769 q 149 650 268 650 l 149 650 z m 389 650 l 344 650 l 344 719 l 385 719 q 435 769 435 719 l 435 769 l 435 814 l 415 814 q 348 839 375 814 q 321 901 321 864 l 321 901 q 348 967 321 942 q 415 992 375 992 l 415 992 q 482 965 456 992 q 508 899 508 939 l 508 899 l 508 769 q 389 650 508 650 l 389 650 z"},"(":{"ha":526,"x_min":83,"x_max":513,"o":"m 513 -231 l 513 -326 q 283 -279 379 -326 q 135 -131 186 -232 q 83 129 83 -31 l 83 129 l 83 579 q 135 840 83 740 q 283 988 186 940 q 513 1035 379 1035 l 513 1035 l 513 939 q 268 848 347 938 q 189 572 189 758 l 189 572 l 189 136 q 268 -139 189 -49 q 513 -231 347 -229 l 513 -231 z"},")":{"ha":524,"x_min":10,"x_max":440,"o":"m 10 -326 l 10 -326 l 10 -231 q 256 -139 178 -229 q 333 136 333 -49 l 333 136 l 333 572 q 256 848 333 758 q 10 939 178 938 l 10 939 l 10 1035 q 240 988 144 1035 q 388 840 336 940 q 440 579 440 740 l 440 579 l 440 129 q 388 -131 440 -31 q 240 -279 336 -232 q 10 -326 144 -326 z"},"[":{"ha":465,"x_min":115,"x_max":439,"o":"m 439 -326 l 224 -326 q 145 -295 175 -326 q 115 -217 115 -264 l 115 -217 l 115 925 q 145 1003 115 972 q 224 1035 175 1035 l 224 1035 l 439 1035 l 439 939 l 258 939 q 221 897 221 939 l 221 897 l 221 -189 q 258 -231 221 -231 l 258 -231 l 439 -231 l 439 -326 z"},"]":{"ha":465,"x_min":26,"x_max":350,"o":"m 243 -326 l 26 -326 l 26 -231 l 207 -231 q 244 -189 244 -231 l 244 -189 l 244 897 q 207 939 244 939 l 207 939 l 26 939 l 26 1035 l 243 1035 q 320 1003 290 1035 q 350 925 350 972 l 350 925 l 350 -217 q 320 -295 350 -264 q 243 -326 290 -326 l 243 -326 z"},"{":{"ha":600,"x_min":54,"x_max":574,"o":"m 574 -326 l 357 -326 q 280 -295 311 -326 q 249 -217 249 -264 l 249 -217 l 249 232 q 174 301 249 301 l 174 301 l 54 301 l 54 407 l 174 407 q 249 476 249 407 l 249 476 l 249 925 q 280 1003 249 972 q 357 1035 311 1035 l 357 1035 l 574 1035 l 574 939 l 393 939 q 356 897 356 939 l 356 897 l 356 475 q 328 394 356 425 q 253 364 301 364 l 253 364 l 243 364 l 243 344 l 253 344 q 328 314 301 344 q 356 233 356 283 l 356 233 l 356 -189 q 393 -231 356 -231 l 393 -231 l 574 -231 l 574 -326 z"},"}":{"ha":600,"x_min":26,"x_max":546,"o":"m 243 -326 l 26 -326 l 26 -231 l 207 -231 q 244 -189 244 -231 l 244 -189 l 244 233 q 272 314 244 283 q 347 344 299 344 l 347 344 l 357 344 l 357 364 l 347 364 q 272 394 299 364 q 244 475 244 425 l 244 475 l 244 897 q 207 939 244 939 l 207 939 l 26 939 l 26 1035 l 243 1035 q 319 1003 289 1035 q 350 925 350 972 l 350 925 l 350 476 q 425 407 350 407 l 425 407 l 546 407 l 546 301 l 425 301 q 350 232 350 301 l 350 232 l 350 -217 q 319 -295 350 -264 q 243 -326 289 -326 l 243 -326 z"},"%":{"ha":1072,"x_min":49,"x_max":1025,"o":"m 960 932 l 188 -19 l 113 40 l 886 992 l 960 932 z m 804 -18 l 804 -18 q 642 41 703 -18 q 582 201 582 100 l 582 201 l 582 210 q 642 370 582 311 q 804 429 703 429 l 804 429 q 964 370 903 429 q 1025 210 1025 311 l 1025 210 l 1025 201 q 965 41 1025 100 q 804 -18 904 -18 z m 804 63 l 804 63 q 897 100 863 63 q 931 197 931 138 l 931 197 l 931 214 q 897 312 931 275 q 804 349 863 349 l 804 349 q 710 312 744 349 q 676 214 676 275 l 676 214 l 676 197 q 710 100 676 138 q 804 63 744 63 z m 269 543 l 269 543 q 108 603 168 543 q 49 763 49 663 l 49 763 l 49 771 q 108 931 49 872 q 269 990 168 990 l 269 990 q 430 931 369 990 q 490 771 490 872 l 490 771 l 490 763 q 430 603 490 663 q 269 543 369 543 z m 269 624 l 269 624 q 363 661 328 624 q 397 758 397 699 l 397 758 l 397 775 q 363 873 397 836 q 269 910 328 910 l 269 910 q 176 873 210 910 q 142 775 142 836 l 142 775 l 142 758 q 176 661 142 699 q 269 624 210 624 z"},"-":{"ha":632,"x_min":110,"x_max":521,"o":"m 521 307 l 110 307 l 110 408 l 521 408 l 521 307 z"},"+":{"ha":861,"x_min":139,"x_max":722,"o":"m 483 194 l 378 194 l 378 436 l 139 436 l 139 536 l 378 536 l 378 778 l 483 778 l 483 536 l 722 536 l 722 436 l 483 436 l 483 194 z"},"/":{"ha":514,"x_min":0,"x_max":518,"o":"m 110 -278 l 0 -278 l 408 972 l 518 972 l 110 -278 z"},"&":{"ha":839,"x_min":61,"x_max":804,"o":"m 668 0 l 347 0 q 201 31 267 0 q 99 118 136 61 q 61 257 61 175 l 61 257 q 85 364 61 318 q 147 440 108 410 q 228 485 185 469 l 228 485 l 228 500 q 117 572 164 519 q 69 714 69 624 l 69 714 q 108 856 69 797 q 211 943 147 914 q 353 972 275 972 l 353 972 l 528 972 l 528 878 l 367 878 q 235 835 289 878 q 182 707 182 793 l 182 707 q 208 611 182 649 q 275 556 233 574 q 367 539 317 539 l 367 539 l 558 539 l 558 688 l 668 688 l 668 539 l 804 539 l 804 443 l 668 443 l 668 0 z m 361 94 l 361 94 l 558 94 l 558 443 l 361 443 q 227 401 282 443 q 172 269 172 358 l 172 269 q 228 138 172 181 q 361 94 285 94 z"},"@":{"ha":1425,"x_min":107,"x_max":1324,"o":"m 1017 -278 l 739 -278 q 410 -206 553 -278 q 188 3 268 -133 q 107 336 107 140 l 107 336 l 107 365 q 183 697 107 560 q 397 906 260 833 q 714 978 533 978 l 714 978 l 743 978 q 1046 908 915 978 q 1250 708 1176 838 q 1324 399 1324 579 l 1324 399 l 1324 351 q 1259 88 1324 175 q 1076 0 1194 0 l 1076 0 l 1031 0 q 944 26 974 0 q 915 94 915 51 l 915 94 l 915 108 l 896 108 q 860 51 885 79 q 795 3 836 22 q 690 -17 754 -17 l 690 -17 q 543 28 608 -17 q 441 150 478 72 q 404 324 404 228 l 404 324 l 404 349 q 440 524 404 447 q 540 644 476 600 q 686 689 604 689 l 686 689 q 789 672 749 689 q 853 628 829 654 q 890 575 876 601 l 890 575 l 910 575 l 910 672 l 1017 672 l 1017 133 q 1024 104 1017 113 q 1051 96 1032 96 l 1051 96 l 1068 96 q 1180 156 1146 96 q 1214 357 1214 217 l 1214 357 l 1214 396 q 1157 658 1214 550 q 994 822 1100 765 q 742 879 889 879 l 742 879 l 718 879 q 454 821 567 879 q 279 647 342 763 q 217 361 217 532 l 217 361 l 217 339 q 283 53 217 169 q 468 -121 349 -62 q 744 -179 588 -179 l 744 -179 l 1017 -179 l 1017 -278 z m 711 82 l 711 82 q 854 147 799 82 q 910 329 910 213 l 910 329 l 910 343 q 854 526 910 460 q 711 592 799 592 l 711 592 q 568 525 624 592 q 513 344 513 458 l 513 344 l 513 328 q 568 149 513 215 q 711 82 624 82 z"},"#":{"ha":872,"x_min":60,"x_max":813,"o":"m 336 0 l 235 0 l 235 283 l 60 283 l 60 379 l 235 379 l 235 593 l 60 593 l 60 689 l 235 689 l 235 972 l 336 972 l 336 689 l 535 689 l 535 972 l 636 972 l 636 689 l 813 689 l 813 593 l 636 593 l 636 379 l 813 379 l 813 283 l 636 283 l 636 0 l 535 0 l 535 283 l 336 283 l 336 0 z m 336 593 l 336 379 l 535 379 l 535 593 l 336 593 z"}}}
